# xmcd
#
# Track frame offsets:
# 150
# 17078
# 38953
# 59966
# 100017
# 118776
# 141422
# 157538
# 183448
# 202336
# 232450
# 251357
#
# Disc length: 3786 seconds
#
#
# Revision: 1
# Processed by: cddbd v1.5.2PL0 Copyright (c) Steve Scherf et al.
# Submitted via: FreeRIP 2.942 
#
DISCID=b10ec80c
DTITLE=Adhemar de Campos [Comunhão e Adoração 6] - Comunhão e Adoração 6 [Adhemar de Campos ]
DYEAR=2007
DGENRE=Blues
TTITLE0=Ele é exaltado [Adhemar de Campos]
TTITLE1=Homem de Guerra - Nosso General [Adhemar de Campos e Fernadinho]
TTITLE2=A Vitória [Adhemar de Campos e Nelson Bomilcar]
TTITLE3=Grande é o Senhor [Adhemar de Campos e Nívea Soares]
TTITLE4=Bem Supremo  [Adhemar de Campos]
TTITLE5=Ele Vem Pra Te Salvar [Adhemar de Campos e Rachel Novaes]
TTITLE6=Pela Fé [Adhemar de Campos e Ronaldo Bezerra]
TTITLE7=O Nome de Jesus [Adhemar de Campos e Soraya Moraes]
TTITLE8=Amigo de Deus  [Adhemar de Campos e Ana Paula Valadão]
TTITLE9=Louvemos ao Senhor - Magnifiquemos - Hosana - O Motivo do Llouvor  [Adhemar de Campos e David Quilan]
TTITLE10=O Leão da Tribo de Judá - Nosso Comandante [Adhemar de Campos Massao Suguihara]
TTITLE11=Tributo a Yehovah  [Adhemar de Campos e Min. Trazendo a Arca]
EXTD=
EXTT0=
EXTT1=
EXTT2=
EXTT3=
EXTT4=
EXTT5=
EXTT6=
EXTT7=
EXTT8=
EXTT9=
EXTT10=
EXTT11=
PLAYORDER=
